<?xml version="1.0" standalone="no"?>
<!DOCTYPE svg PUBLIC "-//W3C//DTD SVG 20010904//EN"
 "http://www.w3.org/TR/2001/REC-SVG-20010904/DTD/svg10.dtd">
<svg version="1.0" xmlns="http://www.w3.org/2000/svg"
 width="300.000000pt" height="300.000000pt" viewBox="0 0 300.000000 300.000000"
 preserveAspectRatio="xMidYMid meet">

<g transform="translate(0.000000,300.000000) scale(0.100000,-0.100000)"
fill="#000000" stroke="none">
<path d="M1235 2976 c-610 -116 -1072 -565 -1208 -1174 -18 -82 -21 -130 -22
-302 0 -179 3 -218 23 -309 67 -299 199 -539 411 -751 215 -215 453 -345 752
-412 91 -20 130 -23 309 -23 221 1 308 14 475 70 72 24 235 94 235 101 0 2
-110 151 -244 331 -133 180 -348 483 -476 673 -128 190 -263 388 -299 440
l-66 95 -5 -443 c-6 -506 1 -472 -96 -472 -91 0 -84 -50 -84 630 0 688 -11
620 105 620 l66 0 193 -292 c651 -988 999 -1513 1002 -1517 6 -7 86 50 172
122 225 190 391 459 474 767 28 106 31 131 36 319 3 135 0 229 -8 280 -97 602
-533 1075 -1132 1227 -93 24 -125 27 -323 30 -154 2 -241 -1 -290 -10z m793
-898 c9 -9 12 -144 12 -546 l0 -534 -90 137 -90 137 0 394 c0 344 2 395 16
408 19 19 134 22 152 4z"/>
</g>
</svg>
