<svg width="495" height="110" viewBox="0 0 495 110" fill="none" xmlns="http://www.w3.org/2000/svg">
<path d="M226.46 100H160V10H182.15V80.66H226.46V100Z" fill="black"/>
<path d="M258 12.7301C258 19.5801 252.76 24.7301 245.51 24.7301C238.26 24.7301 233.16 19.6301 233.16 12.7801C233.16 9.48612 234.469 6.32704 236.798 3.99784C239.127 1.66864 242.286 0.360107 245.58 0.360107C248.874 0.360107 252.033 1.66864 254.362 3.99784C256.692 6.32704 258 9.48612 258 12.7801V12.7301ZM234.79 100V32.6001H256.27V100H234.79Z" fill="black"/>
<path d="M338 58.64V100H316.65V63.21C316.65 55.29 311.95 49.92 305.1 49.92C296.64 49.92 291.1 55.69 291.1 68.71V100H269.66V32.6H291.14V39C296.24 33.63 303.36 30.54 311.82 30.54C327.52 30.58 338 41.73 338 58.64Z" fill="black"/>
<path d="M416.74 71.8001H367.33C369.07 79.8601 374.58 84.8001 381.83 84.8001C386.83 84.8001 392.57 83.6001 396.19 77.0201L415.26 80.9101C409.49 95.1401 397.26 101.99 381.83 101.99C362.36 101.99 346.25 87.6201 346.25 66.2801C346.25 44.9401 362.36 30.5801 382 30.5801C401.07 30.5801 416.37 44.2801 416.78 66.3001L416.74 71.8001ZM367.74 58.6401H395.53C393.53 51.3901 388.15 48.0401 381.97 48.0401C378.768 48.0247 375.648 49.0502 373.08 50.962C370.511 52.8739 368.634 55.5685 367.73 58.6401H367.74Z" fill="black"/>
<path d="M494.17 58.64V100H472.83V63.21C472.83 55.29 468.13 49.92 461.28 49.92C452.82 49.92 447.28 55.69 447.28 68.71V100H425.84V32.6H447.32V39C452.42 33.63 459.54 30.54 467.99 30.54C483.7 30.58 494.17 41.73 494.17 58.64Z" fill="black"/>
<path d="M20 60H10V70H20V60Z" fill="#0855F4"/>
<path d="M20 0H10V50H20V0Z" fill="#0855F4"/>
<path d="M20 80H10V90H20V80Z" fill="#0855F4"/>
<path d="M20 100H10V110H20V100Z" fill="#0855F4"/>
<path d="M40 0H30V50H40V0Z" fill="#4495FA"/>
<path d="M40 100H30V110H40V100Z" fill="#4495FA"/>
<path d="M40 60H30V70H40V60Z" fill="#4495FA"/>
<path d="M40 80H30V90H40V80Z" fill="#4495FA"/>
<path d="M60 100H50V110H60V100Z" fill="#25CDE8"/>
<path d="M60 80H50V90H60V80Z" fill="#25CDE8"/>
<path d="M60 60H50V70H60V60Z" fill="#25CDE8"/>
<path d="M60 0H50V50H60V0Z" fill="#25CDE8"/>
<path d="M10 50H0V60H10V50Z" fill="#25CDE8"/>
<path d="M30 50H20V60H30V50Z" fill="#25CDE8"/>
<path d="M110 50H60V60H110V50Z" fill="#25CDE8"/>
<path d="M50 50H40V60H50V50Z" fill="#25CDE8"/>
<path d="M20 50H10V60H20V50Z" fill="#003CD2"/>
<path d="M40 50H30V60H40V50Z" fill="#0078E3"/>
<path d="M60 50H50V60H60V50Z" fill="#00A4D2"/>
<path d="M110 70H60V80H110V70Z" fill="#4495FA"/>
<path d="M10 70H0V80H10V70Z" fill="#4495FA"/>
<path d="M50 70H40V80H50V70Z" fill="#4495FA"/>
<path d="M30 70H20V80H30V70Z" fill="#4495FA"/>
<path d="M20 70H10V80H20V70Z" fill="#003CD2"/>
<path d="M40 70H30V80H40V70Z" fill="#0855F4"/>
<path d="M60 70H50V80H60V70Z" fill="#0078E3"/>
<path d="M50 90H40V100H50V90Z" fill="#0855F4"/>
<path d="M110 90H60V100H110V90Z" fill="#0855F4"/>
<path d="M30 90H20V100H30V90Z" fill="#0855F4"/>
<path d="M10 90H0V100H10V90Z" fill="#0855F4"/>
<path d="M20 90H10V100H20V90Z" fill="#0000D1"/>
<path d="M40 90H30V100H40V90Z" fill="#003CD2"/>
<path d="M60 90H50V100H60V90Z" fill="#003CD2"/>
</svg>
